<svg width="32" height="32" viewBox="0 0 32 32" fill="none" xmlns="http://www.w3.org/2000/svg">
<path d="M23.3563 27H8.64375C7.3925 27 6.375 25.9825 6.375 24.7313V14.1438C6.375 12.8925 7.3925 11.875 8.64375 11.875H23.3563C24.6075 11.875 25.625 12.8925 25.625 14.1438V24.7175C25.625 25.9688 24.6075 26.9862 23.3563 26.9862V27ZM8.64375 13.25C8.14875 13.25 7.75 13.6488 7.75 14.1438V24.7175C7.75 25.2125 8.14875 25.6112 8.64375 25.6112H23.3563C23.8513 25.6112 24.25 25.2125 24.25 24.7175V14.1438C24.25 13.6488 23.8513 13.25 23.3563 13.25H8.64375Z" fill="black"/>
<path d="M22.2424 13.25H9.75745V11.2425C9.75745 7.805 12.5624 5 15.9999 5C19.4374 5 22.2424 7.805 22.2424 11.2425V13.25ZM11.1324 11.875H20.8674V11.2425C20.8674 8.56125 18.6812 6.375 15.9999 6.375C13.3187 6.375 11.1324 8.56125 11.1324 11.2425V11.875Z" fill="black"/>
<path d="M21.5 20.8125C22.2594 20.8125 22.875 20.1969 22.875 19.4375C22.875 18.6781 22.2594 18.0625 21.5 18.0625C20.7406 18.0625 20.125 18.6781 20.125 19.4375C20.125 20.1969 20.7406 20.8125 21.5 20.8125Z" fill="black"/>
<path d="M16 20.8125C16.7594 20.8125 17.375 20.1969 17.375 19.4375C17.375 18.6781 16.7594 18.0625 16 18.0625C15.2406 18.0625 14.625 18.6781 14.625 19.4375C14.625 20.1969 15.2406 20.8125 16 20.8125Z" fill="black"/>
<path d="M10.5 20.8125C11.2594 20.8125 11.875 20.1969 11.875 19.4375C11.875 18.6781 11.2594 18.0625 10.5 18.0625C9.74061 18.0625 9.125 18.6781 9.125 19.4375C9.125 20.1969 9.74061 20.8125 10.5 20.8125Z" fill="black"/>
</svg>
